<!DOCTYPE svg PUBLIC "-//W3C//DTD SVG 1.1//EN" "http://www.w3.org/Graphics/SVG/1.1/DTD/svg11.dtd">
<!-- Uploaded to: SVG Repo, www.svgrepo.com, Transformed by: SVG Repo Mixer Tools -->
<svg fill="#000000" width="100px" height="100px" viewBox="0 0 24.00 24.00" id="double-down-sign" data-name="Flat Color" xmlns="http://www.w3.org/2000/svg" class="icon flat-color" stroke="#000000" stroke-width="0.00024000000000000003">
<g id="SVGRepo_bgCarrier" stroke-width="0"/>
<g id="SVGRepo_tracerCarrier" stroke-linecap="round" stroke-linejoin="round" stroke="#fcfcfc" stroke-width="2.4">
<path id="primary" d="M2.13,4.51A1,1,0,0,1,3,4a1,1,0,0,1,.49.13L12,8.86l8.51-4.73a1,1,0,0,1,1,1.74l-9,5a1,1,0,0,1-1,0l-9-5A1,1,0,0,1,2.13,4.51Zm18.38,8.62L12,17.86,3.49,13.13A1,1,0,0,0,3,13a1,1,0,0,0-.49,1.87l9,5a1,1,0,0,0,1,0l9-5a1,1,0,1,0-1-1.74Z" style="fill: #000000;"/>
</g>
<g id="SVGRepo_iconCarrier">
<path id="primary" d="M2.13,4.51A1,1,0,0,1,3,4a1,1,0,0,1,.49.13L12,8.86l8.51-4.73a1,1,0,0,1,1,1.74l-9,5a1,1,0,0,1-1,0l-9-5A1,1,0,0,1,2.13,4.51Zm18.38,8.62L12,17.86,3.49,13.13A1,1,0,0,0,3,13a1,1,0,0,0-.49,1.87l9,5a1,1,0,0,0,1,0l9-5a1,1,0,1,0-1-1.74Z" style="fill: #000000;"/>
</g>
</svg>